/* XPM */
static char *result[] = {
/* columns rows colors chars-per-pixel */
"64 64 118 2 ",
"   c #4E3F38",
".  c #4F4339",
"X  c #54453C",
"o  c #564A3D",
"O  c #59493D",
"+  c #574E40",
"@  c #594D43",
"#  c #5E5144",
"$  c #5D5349",
"%  c #5E5A4E",
"&  c #5F5D51",
"*  c #625345",
"=  c #63564C",
"-  c #685749",
";  c #655A4D",
":  c #6B5C4D",
">  c #655C52",
",  c #6B5E53",
"<  c #725F51",
"1  c #71604F",
"2  c #656256",
"3  c #6C6254",
"4  c #666559",
"5  c #6C655A",
"6  c #6C6A5D",
"7  c #736455",
"8  c #786755",
"9  c #7A6956",
"0  c #736659",
"q  c #746A5C",
"w  c #7A6D5C",
"e  c #7B705F",
"r  c #6E6D62",
"t  c #746D62",
"y  c #796E61",
"u  c #747266",
"i  c #7C7364",
"p  c #76756A",
"a  c #7B766A",
"s  c #77786F",
"d  c #7C7A6E",
"f  c #777870",
"g  c #7E7D72",
"h  c #817565",
"j  c #807966",
"k  c #81776A",
"l  c #837A6B",
"z  c #8A7D6E",
"x  c #827E72",
"c  c #897F72",
"v  c #7E8076",
"b  c #7E8178",
"n  c #87806E",
"m  c #88816F",
"M  c #848275",
"N  c #8A8274",
"B  c #85857A",
"V  c #8A857A",
"C  c #86887D",
"Z  c #8A897D",
"A  c #90877A",
"S  c #928B7E",
"D  c #868A81",
"F  c #8C8D82",
"G  c #8D8F88",
"H  c #928E82",
"J  c #8E9186",
"K  c #8E948A",
"L  c #929286",
"P  c #93958B",
"I  c #98978B",
"U  c #96998E",
"Y  c #999A8E",
"T  c #969B92",
"R  c #9A9D94",
"E  c #9C9F98",
"W  c #9DA196",
"Q  c #9EA399",
"!  c #A1A396",
"~  c #A2A59C",
"^  c #A4A99E",
"/  c #A8AC9E",
"(  c #A6ABA2",
")  c #AAADA4",
"_  c #A7B0A6",
"`  c #ACB1A6",
"'  c #ADB4AA",
"]  c #AEB8AD",
"[  c #B0B2A7",
"{  c #B1B6AC",
"}  c #B2B9AE",
"|  c #B2B7B0",
" . c #B5BCB2",
".. c #B9BEB4",
"X. c #B8BFB8",
"o. c #B7C1B6",
"O. c #BAC1B6",
"+. c #B7C1B8",
"@. c #BDC4BA",
"#. c #BEC8BE",
"$. c #C0C6BD",
"%. c #C1C9BE",
"&. c #BFC9C0",
"*. c #C1C7C0",
"=. c #C4CCC3",
"-. c #C8CEC6",
";. c #C9CFC8",
":. c #C6D0C6",
">. c #C8D1C6",
",. c #C7D1C8",
"<. c #CBD3CA",
"1. c #CFD8CF",
"2. c #D0D6CF",
"3. c #D0D8CF",
"4. c #CFD8D0",
"5. c #D1D7D1",
"6. c #D4DBD4",
"7. c #D8DDD8",
/* pixels */
"= = = > @ = @ X   , $ # ; - - * * : : : - 3 # = 3 : ; 5 > ; , ; X   3 > @ = = 4 0 @ @ O @ = O O , > % > > > > > r @ 0 > t > + , ",
"0 7 7 w : 8 : - o 0 1 - 7 8 w 9 9 9 w e w w : 3 w 9 9 w w 8 8 8 * X 5 3 + 3 0 k a < - < w w 3 7 5 3 4 t 6 3 5 t a > a 5 y , # 0 ",
"< 7 3 , # 7 7 - # 0 3 - 7 8 h w i w q i e e 3 w w 8 e h w 8 8 8 7 # 5 3 @ = 0 y y 0 < 9 w w w 7 > > > 5 u e q d k 5 a , y 0 * 0 ",
", 7 , ; @ 0 0 , ; 5 ; 1 3 8 w h w 8 j l i i w : 9 h w 9 8 8 1 : ; = 0 ; # $ , y y y < 0 3 3 3 * > & % 2 6 6 4 6 p 4 a , k < * q ",
"0 , 5 y , t y 5 = d , 7 q w h h 7 i u i 0 w 8 w h w e 9 w 8 3 7 0 ; a i , 0 y u x y q q y i 0 > 2 4 4 u u u 4 i r > r 0 x a , y ",
"k g a x 4 x N i , x y y i e l l i m N N i i h h h h e h e w 8 8 0 = t t t i a g k a h y k h h q t p p B d p u M y t k 5 c y 3 x ",
"x x k x > x C x 0 x q h h i l h t M n n i e l h h h j h i e e 0 q 0 u 6 0 y i p a y i i k h h 0 p d u n i u d V y t x t x t 6 a ",
"x x a a & M C x t x q q k h z h q l N n d i h h j h z h i e w 0 y 5 p r 6 t u p a y w i h j h q p a a d u p p B a y x t x a t u ",
"x x d p 4 g M k y c k y x x x y t y c i a k l h h e j e e w q q 0 t a r t t u d g i t i k l h y i d a f u p p g t y x p x f a f ",
"l l u u 5 x M g 5 D k a x k l k y k c k k z h h h j n e i q 0 w y y f u y t a g g i y a i c h t p d p a a r d d y f x t x g u a ",
"t 4 5 t 2 p d > , a t t t t 6 5 , 5 i y h 0 7 3 1 e w 9 7 3 0 3 5 6 r 4 6 t t p u 6 5 5 6 t , > 5 6 r r r 5 & r 5 t u r a f r > ",
"x x d d u M x d g g t a d d x M x a d i y 0 , : h j j n v i l h i d d p 4 q t g M a i x x l i t p p a g p a r a f x x f g M t p ",
"N M N V a M x x d d M V Z H Z L H N V V c c l y h z m A m m m j k M v s u t a d V M d x M N k t a p p M x x p x x x g f g C f g ",
"x g x g g x B M x u M V Z Z M S F N F V V N x k z m m A M z m l k v C b i u g B V x p d M Z x t g d d M g g p f g g x M M F d 6 ",
"x d g d x D M M x r x V M M V Z S H V V V c x y N l A A V N l k M M V C u r M V V g u d V Z l u x f d g f x f g g D M D F H d u ",
"V x x x M N F V d p g V V L V Z H S V V H V c w N N N A z N M x V M v C f p B F Z M M x M V x d f p v C D g x D g D V D L P x u ",
"M x M d M B D M v u v B B Z B Z S Z B Z S L A d S S A V H S x l v v v v v u B B C M M n B B M d x u b D D C B D G F D F Z F d g ",
"x d g p d b u a 6 r d n p d p v v v p M m M d k d t t 6 y 7 q t 6 e r v 6 4 u u r r r 6 u 4 3 p f p f p p p f a t r s f s x 6 u ",
"Z C C p M D g v v v C C B Z J Z m B Z S L L L S S V Z a M x l d v m B Z b v v v v M v 4 B v M Z F C B D D D G M g v D C C H Z Z ",
"Z C M g Z D C Z M Z V Z C S J Z v B S L I L L L I L Z M C N x x m S Z S Z v M M M C C d B C B C H D L D J F L D B C D F Z F F H ",
"Z J C g G F D J M F P J Z L J Z M Z L L I L L Y L I S S S S Z V B Z B Z Z b v Z B M C u v B B S G C L P Y U R H F F J L P P L P ",
"C C D b P J J J C C J F Z C L F v V L L I P Y I I L L S L L L V B S Z Z Z Z B Z B M Z v M C Z Z Z D P Y P P ! R D P P L U P L L ",
"B C F C K F J J C Z J J J J J L M S L I Y P Y Y L I L I I L Z V Z J Z Z L C C Z Z S Z v M Z C Z P F T T Y Y ^ R B P Y P R L G H ",
"B B F b D D F L C J J J J J C L C J Y Y Y Y U U I Y I I ! I H Z Z S Z Z Z Z Z v Z B M v M J Z M N M U T R P R P f J R Y ^ P L Z ",
"C B C C D G H G C Z M B g p C g v M L Y Y L P F P Y I I L I I M B C v Z v v m v C C V H M F Z C L D L G P P Z F D P L T R L M M ",
"U L J U U G P P G F F F P P R U I Y Y Y R T R L Y Y P Y I Y L V v Z Z S C C S Z G H L I P P L P U F P L I R ~ R P P T P Y I J C ",
"U K U Y R Y R T L J J K P ! ! ! ! ! ~ ! E R T T W ! W Y Y R Y G S Z K Z C C P P G U G H L F J P U J T R R ! ~ ! U T R P R W L C ",
"Y U W W ! E E R Y U J U W ! ^ / / ! ~ ! Q Q E Q ! ! ~ ~ W ! R P K Z U K Z Z K T Y Y U L J F J U R T R Q E Q ~ W U R R T ! W P G ",
"W Y R Q W ~ E ~ Y J P W ~ / ^ / / / ^ ^ ^ E Q Q Q ^ ( Q E Q E G U Y L U K P T W T R E R P L U U R P T ! R W ^ ~ T Q R T R R P L ",
"W U W ^ ~ ( ^ ( Q U D W W ^ ( ( ~ / ^ ^ ~ ~ Q E W ^ ( ( ~ ( E G K W Y U S P W W ( ( ( R Y R I R R P F R R R R R R U P T Y R V F ",
"J C J K P U T T J C b D T R R U Y W R T E T E K K K F D G G G x B C Z B b Z Z U U Y P C D D B F D F D C D Z Z D F V B b D D B C ",
"Y J K ^ ! ! ~ ( ^ Q W Q Q W ~ ~ ) ^ ^ Q ( ( ( Q _ _ ( T T T E T W ! ! Q Q ^ ^ ^ ~ ( T Y ~ E ~ ~ R G T ! ! ! R W ~ R R P Q Q Q W ",
"~ G E ( ~ ( ) [ ) ( ( ( ~ ( [ ( { ` _ ( _ _ _ ' ' | ( ~ ~ ( E T / ` ` / / W ^ ^ ( ~ R ~ ) ( ~ ) ~ E ~ ) ) ) ) ) ) ~ ( R ( ) / ~ ",
"~ x R ) [ [ { { [ [ ) ) ( ( ) ^ ` ' ` ' _ _ _ ' ) | ) | ( ( ( P / [ ' ` ' ( ^ ) ) ( T ~ { ) ) ~ ) E E ) ) [ ) E ( ( ) E ) ) ) ~ ",
"( G E [ ) ) { { ( ) ~ ) ( ~ ) E ^ ) ' ' ` ( _ _ ' | ' ' ) ~ ( R / ` ` ` ' ` ` ( ` ) U T ) ) ) ) ) ) ~ ~ [ ) [ I ~ ) ) E ) ) ) R ",
"~ T I ) ) [ { { ) ) ( ) ) ) ! T ~ / { ] ' _ ] _ ' | ) ' ( ) ( E / [ [ ' { ` [ ` ` ) P T ) ) ) ) ) ) ~ ~ [ | | ) ) [ ) E [ [ ) / ",
"I U R E E E E ~ ( ~ E E ! ^ W W ! ( ( ^ ( ( ( Q T E E E T E E E E ^ Q ( ` ) ^ ( ) E U U E ~ ~ ~ E ~ E E T ( ) ~ T Q Q T ~ ( E I ",
"~ ) E E E E E ~ ~ ( ~ ~ ! W W R R ! ~ ^ Q Q ( E E T T K P R E T R R J E P J G G H L F G U I ! ~ E I ~ [ ~ ~ ~ ~ Q ( ^ Q ~ ~ G b ",
"[ { [ [ [ | [ [ ) ~ / [ [ ` [ [ ) [ { { | | ' ` | ` ' | { | } ( ) [ [ { ~ [ { { [ { { | [ | } [ ) E [ [ [ ..| |  .{ | { | [ T I ",
"{ | { [ { | [ [ [ ~ / [ [ [ } { { }  .} | | ` ) { | | | }  . .` ) [ { { / [ { } { ....| [ | } { | ~ { | | X.@.....| | { [ | E E ",
"{ | [ {  . .} { ` / [ [ [ o.} }  ... . .{ } ' ' } } ]  .}  . .` [ [ { { ( { } } } ....} { } { ..] _ '  .} ..O.O.....} ] } ' W ~ ",
"{ { { .... .{ { } ! ` { [ } } {  ... .O. . .} ' { } } } }  .] ( ' ' ' ) ( ]  .O.} ....} } } ..}  .Q ' } } } O.O.+. . .} } } W R ",
"| | ..O.o.....} o.W W [ } O.o.o. .....@. .} { } O. . .}  .} ] _ ' ] { ' (  .O.+...O.$...{ O...} ] ( ] |  .}  .o... .] } ' _ W R ",
"! R ( ( / ' ` { _ Q K R / ` ` / ~ ( ~ Q W R T R W T W W Q ^ Q U T E R T T Q W ~ ~ ^ ) ! R ^ R W _ Q K K T U U W T T K K K G C T ",
"[ { } / ( O. .} } } } } } o.Q / ' } ' [ } } ' } [ [ ` Q } o.] _ ) ' ) ) { | ' ' ` ' } ` ' } ) [ ] } ' _ { ' / _ ' ' ' / ^ Q ~ _ ",
"} o.O.' } @.%.+.O.O.O.} o.} } } O.@.$.#.+.$.O.O.....{ ^ } } o.o.X.@.....O.O.+. . .] } ] }  .O.O.O.O.X.X...o.]  .O.o.O.}  .} ..} ",
"} O.O.} o.$.$.O.$.$.O.} } ' o.o.O.#.$.O.@.$.@.O.O.O.o.{ ..O.#.o.$.@.....+.+.+.@.O. ...}  .o.O.o.$.O.@.$.O.O.} } O.O.O.@.@.O.O.O.",
"o.O.o.} O.$.@.O.o.o.O.o.} ` ' @.@.@.$.$.#.$.@.$.@.$.$.' } @.#.o.@.@.$.$.#.#.#.@. .' } ' { O.O.....@.@.@.O.@.{ ' O.@.O.@.O.O.@.@.",
"o.o...} +.@.#.O.{ ..o.} ' Q _ o.+.#.#.#.#.@.#.o.o.$.@.' ] #.+.o.@.@.@.$.$.*...$.} } } ] } ..@.@.$.$.$.@.O.#.' ~ o.@.O.@.@.@.@.@.",
"@.O...` | =.=.$.O...o.} ` Q ` ]  .#.%.#.#.$.#.o.O.@.@.{ ] o.#.#.%.$.%.$.%.%.$...} ' ' _ ) @.......O.O.O.o.o.] ' o.$.@.#.O.O.%.#.",
"~ W Q K T Q ^ Q Q T Q Q G C W W Q Q ) ( Q W W W W T R K W U Q _ ) ( _ { ` ) / ! W T W Y D Q Q ( Q ^ R U Q W K U P J T T T ! T T ",
"#.$.%.%.#.:.%.$.O.{ o.o.o.] +.+.@.+.#.&.#.o.' Q ]  . . .o.o.O.O.+.%.#.O.) ( ....| | } }  .+. . .} ` '  .o.O.O.o.{ } } ] o.o._ W ",
"@.O.-.=.>.:.>.:.@.] &.#.#.#.&.=.=.*.&.&.&.&.X.] o.+.#.&.#.&.=.#.%.:.#.%.....-.$.%.%.=.%.%.%.%.=.%.@.$.%.%.%.:.%.#.#.#.#.#.#.o.^ ",
"=.=.>.:.:.:.:.=.@. .=.#.&.:.=.=.-.:.=.=.,.:.+._ &.:.=.=.=.#.+.+.=.#.=.%.@.%.$...=.=.>.%.#.#.%.%.%.%.%.%.=.>.=.=.>.>.:.#.#.#.o._ ",
"=.*.-.:.=.:.=.=.&. .:.=.&.:.,.:.:.;.*.-.,.;.&.| &.:.#.&.&.&.&.#.#.:.%.&.%.%.%.$.%.>.>.%.#.:.:.#.=.=.$.>.>.>.>.>.>.:.:.#.:.#.o.o.",
"-.-.-.$.:.%.:.%.&.+.=.=.&.=.=.:.<.:.:.:.,.=.&. .&.&. .=.=.=.=.%.:.&.=.:.%.%.%.%.%.>.>.>.=.#.:.:.=.>.$.>.>.2.2.>.1.>.:.:.#.#.#._ ",
"=.-.:.#.,.=.&.&.+.+.+.@.&.&.=.=.:.*.&.&.&.X. .| X.&.@.&.=.*.&.&.#.#.#.#.o.o.#.#.:.:.=.#.+.o.o.+.$.$...*.=.*.&.&.#.o. .@.X.+.X.] ",
"( ..{ ] o. .| | _ ' ' _ ( ( _  .X.+. .| | ' ' |  .X. .&.,.&.' @.o.o.o.o.] #.o.o. .=.] Q ( o.o.+.O.$.$.$.| ' X.X.o.o.] _ T ( ( _ ",
"-.=.O.%.&.&.;.&.&.:.*.*.&.&.&.&.X.@.<.,.=.,.<.<.*.,.:.:.,.,.( &.:.>.>.<.>.>.>.>.:.,.#.] :.<.:.<.=.-.=.=. .X.@.&.#.:.#. .&.*.&.&.",
"*.@.+.&.&.&.X.&.&.*.*.&.X.&.&.X.X. .:.,.=.,.:.=.=.=.*.:.,.:._ &.%.>.:.#.>.:.#.:.=.*.=...:.&.:.1.2.=.-.-.' @.#.=.:.<.&. .&.=.&.&.",
"*.*.*.*.&.&.&.&.;.*.*.*.X.=.;.=.&.+.&.,.&.:.#.:.*.:.=.,.:.=.Q &.#.:.:.:.:.:.:.&.=.=.*.| >.>.<.,.>.>.,.-. .&.<.<.,.:.-.+.=.*.:.=.",
"*.;.@.*.;.;.;.;.;.;.;.*.&.;.;.@.@.+.,.&.:.:.&.:.,.=.,.=.:.:.( :.#.:.#.>.:.:.&.:.&.*.*.X.:.>.<.:.>.>.=.-._ =.<.,.-.-.:.%.&.&.&.=.",
"-.*.X.*.&.&.;.*.;.;.*.;.X.;.;.=.&.#.<.&.&.&.:.#.#.=.=.=.:.#._ &.#.#.#.:.:.%.#.:.=.=.#.+.&.>.:.:.-.=.O.&.o.#.:.:.=.=.#.+.#.#.@.&.",
"5.6.;.6.5.5.5.5.7.7.5.5.;.5.6.6.6.,.4.4.6.7.1.6.4.4.6.6.6.6.#.>.<.1.1.6.6.6.7.7.5.6.6.@.4.4.6.6.6.6.5.2.>.1.6.6.6.1.<.&.1.<.<.1."
};
