/* XPM */
static char *result[] = {
/* columns rows colors chars-per-pixel */
"64 64 76 1 ",
"  c #5F3E27",
". c #573D2F",
"X c #5C3E2B",
"o c #563D31",
"O c #583F30",
"+ c #56422E",
"@ c #5D422C",
"# c #5D4432",
"$ c #5F4936",
"% c #5E4A3C",
"& c #62442D",
"* c #6A472E",
"= c #66492E",
"- c #69492F",
"; c #634632",
": c #684730",
"> c #654A34",
", c #6B4D35",
"< c #654C3A",
"1 c #6B4E3A",
"2 c #704E35",
"3 c #704F3A",
"4 c #6D5136",
"5 c #66513C",
"6 c #6D523B",
"7 c #6D593F",
"8 c #725236",
"9 c #73543C",
"0 c #79573C",
"q c #75593E",
"w c #7A5A3E",
"e c #645542",
"r c #6D5441",
"t c #6E5943",
"y c #735641",
"u c #785740",
"i c #755A43",
"p c #7B5C44",
"a c #765D49",
"s c #7B5E49",
"d c #7B5F50",
"f c #766247",
"g c #7D6046",
"h c #77624C",
"j c #7D624B",
"k c #776553",
"l c #7D6553",
"z c #7E6951",
"x c #7E6C59",
"c c #815E44",
"v c #815E4B",
"b c #816146",
"n c #83644B",
"m c #89664C",
"M c #86694D",
"N c #8A694E",
"B c #846651",
"V c #856A53",
"C c #8A6C52",
"Z c #856C5B",
"A c #8C6E59",
"S c #916E53",
"D c #8E7156",
"F c #84715E",
"G c #8C715C",
"H c #947155",
"J c #93735C",
"K c #9A785B",
"L c #8C7562",
"P c #8F7863",
"I c #917662",
"U c #937A65",
"Y c #937C69",
"T c #987F6C",
"R c #9A816A",
"E c #9F8770",
/* pixels */
"jAVa<aBbnBBiiiy9iyyar;yiyte%<5axZZZdBhrtte<r5e5e%t>55rikgkjk5tee",
"yiiiyay;11y;oo;;pjaiasp0q965tt5tdstrasi6#>$6694>;<>#>,iy6>>941;>",
"r<avBnnjlsppiiyy9iii9yppi97gifi7iazaiqq7=4>>>><&,<<q6ygjiiiyipit",
"sdABsbjnvauygnppwwbbpppwn66iiitrrrta9ii6998,1<677>7gi<6#y6@1&>pi",
"svCSCpmnpq9864,4898i8yspgi6y96>=7y1,>4,-,4,i657,761<>>i679=,0cgg",
"siCNbMnymp0pgMmgpppmy9sdpjhGj675ytr76jp99pqnMfitys>6<6y69i89pbby",
"spBmCnnDp09111,,33y11y;yysj6<<=>,@661i1yiyis6644q716><7yy94&-q86",
"vnppMbMMiin19y9i3yayryrsgaBsji6ihpiyljlVBy9ggi649ps96VMnjj6647wi",
"qupvmnwussp119699,:,,#eoe9666,4>>>X><##;<5>>#>6>,,,,91>>1i5>>55a",
"yppnBsyysBnpppmnbvvpbasrahiggjiijByyyajstr66qr6tp3qysaigiAzgfajk",
"jj9yyi91,1;,4pwp,318sdy<1yqij4>@&ir&X>6r166<61>,:,8696>qpjq99755",
"jjvsappsnBi9pmbCusbpsppncqpggijiirp7asjsgjgijsy16,yiyyypnjjnng7f",
"=96gwq811q6,,0pwppq88=wnw,,498w4yriiniyr6j6,644q6913l9<<iahhfttk",
"pmNMnp8yppjp8,pw08-8gw9qq904466<6yy6yasssjjppgiysi1iyi66yVarifzx",
"wwgqp0wccuq0802*,,q88qnwqpnmgqsyj11111A14riii6;><i1<66<7t1<>yr1y",
"MDMbnncnn80qqpbmgng9<pwggi9446i9966y1ryia6iyty9611>;yy676r7iyyia",
"9bKbcb00ww0q4pn0pp31X#upinbqpp6<,14<rpagyisjs218,,>;gkyylishngpC",
"AM0cbmw0pbnnCnnpnppsbbp1ii6i96p116,@1rriyr6ii99:>>6>6t<erry8pmig",
"wbcbMwbgpnjsVVjjryBZCVpnADnVpggyyVpr71piusiinyq,y9yif6%6ijy6igin",
"8w88qwqw08i919ipppbp0c18084j71<1,>;,9qp0y698,111y=<#@#y1696yfMgn",
"8wqpgpp7ayvyu3wcmNHSwcbbuwupw446iyigcmcNbwpcp9vpjr,yq7pyq9ipfnVi",
"0pb044pzrO1<;9upbNmmw8ww293,#<,=444gmbbc0w289wcqq96i6111qppijMir",
"gbAppppary13pnp9wmmmnbccq9pyigpippppcccc0cmmnBBsidBliyaiigfnjVit",
"9w3116:<,#;;#:960* ,,, =,1>67ii,86440c0088*2,:,=iiy#@>;1y7ii9jBV",
"nqiiip,issssyijipjisnBBap9yAngjfjgighnsmnni9pqpvmpn0vpinnbcpipbV",
"16#<1r;;<y1;161y1=61,131y16y5646jyiy,n9qAp998-q2ip,yr1111r#;11iy",
"snspiyyiyasBsipgnppinAAABjngiqypmnjgCgqqjgg8wbwgnucVncbmvbbpppiy",
"=&:;1;>11@>16i9,3yqis3ai9,rii6iyViryVqq41yp3=,9qc931rsyqpypq3,>,",
"mmjpw9ppnCj9wwpgsNbCViiaysMp<6sadys,48gqiy919b0800vviiqbcCBnpcp9",
"66>##<>1y9h99wpqss7##ryy11ji7<<alszat$#+y,9jiAu3:19v94yypup3,911",
"i9wcpvpcppwwwwqw9yplnBbpncvpp9siBsbncw60ypvcp0pypvvbiipnnCcuccpq",
"=&==,3922,8@<6<7r6iasss11y<#$+>69139cp4q89ppy00uucpp840,299:X&&;",
"piiDpimbbjp9hzVVzsbppq6ssnspi981BaiccwwcpCjgwnnnbvn0bnnbmbppipsy",
"=69949jqp8y7rraarryr1<y61<11r6yyviaquuqb9if94p4qpp8iyppqqg,13,1r",
"gMbngbsbp8iijq6MVVZsidzBdaCpBBVAvnjppbpqapsjgqiVfjVBpbnpppp30CCi",
"gp9bjpp9is<><tliraijjyqnbCbw8pgnBa8qpw9,-4w44=###<iyqpy<;&:;1y3r",
"nCgppppwbcnVBnVDAnmMMjnnnccbwpggMAVCmCnbq9p89qisllijgjhiqi69isps",
"wpppi9pvCnpbi9wipgg9pcwbmvbncNpgqpCjpp93q,,36>iip9194<;:;i76ipqp",
"ngpiiiqnACnnVgnnnBAAmCNnpbncbZCmbcnmCmsubbgggjVgipqppbnp9qijnMnp",
"mpjy6diBBpjniqp4gg9Myys3iy,yyys9yi1ybyi1119<qp99941y111,960pq0yp",
"ggsai6<9iihpghpjnbnBVjMjjbbnbsiqpnsgCNNiy67pgijppp81abVnVvMjpppp",
"zpiazzp65gjt<ryfaa6asVnMb0pnpbwqq989q23:i;#<17p>19ypj9,i6i9ippVr",
"11i>#<67>$977j749ippryngpmggpsngCAACbpnpgisi9qiypppsjy8gyyqgqqpi",
"vpjii61yyqggbVgr<y9hpgggnbqpyqvnns93,31,=19i80ppiq9rtypw88pmbMbp",
"q88q49,,qq4<66,16099pipippwgpNnbmmMmgjnC9;@>9888>=>6008080w00qmn",
"airifpwwgggg7qyii8,,6pqp8,q99p08pqipi844p9q9qppip666w00wcbb0qwgC",
">yi,96qp96,,8q9qpipppbpjiq,*&*,p00w080qpp11iwq08p19q0mc0wc0888w9",
"sp69qqqjg<9pwppq8ppbBp0p0qwpwqpip3pwqpmppjpwgcq8ipq,200wwcwcmbbq",
"2088giyigtii16ipqi66yi11<,i8,9y41:1,,98yy9qq982,,8,,,288qpq88089",
"SmmnCjgM67jq99yp6qppgsdaasjpqjgiapcqsjpbb90nvup8wvbpcZSbpnpgqwMV",
"snbpyg46pii488408848,;r<<t6,611111@,,;=,,1,->,q,9,,,66<>1y6577qz",
"snbMMMgiMjngwgCMMbbbMharipipisyyaBy8ypjp8146000qbq0ispisyVjgf7zz",
"BBiq9944,1=,4gqw*4-4giy,6q9qj=@@&y8&&=8q,8,4q,,4,2y966>8qi469q<7",
"nbjnppggnNwqwmbS0cMwgwnnp,8qq8i9yqp9ppjppnpwgp990,yi6y69i9ipgqyg",
">96gp894491,-9bwpc08,-wnp,,,,69,9qppbpqq8b8,888pqp99Vy<>667679yj",
"cMmMMgwppgbb02pw02,8pp3qq804,68-3q91ipjjgngpjppisp7piar16y,;6ygV",
"vcs93qccnwuuw02=:2030uNpiggnbppib99869G66qbbp9,1yVayiy167###61>6",
"BAAnnNbbm90ppwNmsnvu3ppcgw9,,,88391y19qsjiipppppu9,3js9746,968ip",
"3vJnbbpqppqp9sbyiv89:,pvwbg0qq2,,6,,wgcnignnjq009983nCsyjqipnggZ",
"ABpsBBpypsnnAjBpsspvNmc3pg4q9,q,611&,9qiq96upqq>,,i,ii116664pmwp",
"pvccCpssizjpMVgs1yBVSCbnADbmppc8qZpqq2ccpvppnwp8pqpbg7,6igy6pgwg",
"3w336y9s7ry6,89i9qpw3c9u08,b,,,,,>>,80wqp89,>,61p:>&@@7,6469pngj",
"wp0ijsi5syk9y3yuvmNNwpncpp0pi489ppiggbpNbqppp9ssnq3pyysr7qaiignw",
"YUUGGFYYLxLZZFYUTTTUIIUIIUGDZGGZLLGJRUUUILZLZAUAILZLxZFZLYPYRERL"
};
