/* XPM */
static char *result[] = {
/* columns rows colors chars-per-pixel */
"64 64 66 1 ",
"  c #585155",
". c #69534D",
"X c #6A5957",
"o c #6C5C5C",
"O c #725652",
"+ c #745A55",
"@ c #7A5C57",
"# c #745D5C",
"$ c #7D5E5C",
"% c #74615F",
"& c #7D615E",
"* c #625B61",
"= c #745F61",
"- c #7B5F60",
"; c #756262",
": c #7D6363",
"> c #7B6864",
", c #726569",
"< c #7E6669",
"1 c #7D6A69",
"2 c #845E5D",
"3 c #895E5E",
"4 c #84615E",
"5 c #8A615F",
"6 c #865F60",
"7 c #8A5F60",
"8 c #846362",
"9 c #8A6363",
"0 c #856966",
"q c #8C6967",
"w c #846669",
"e c #8C6668",
"r c #856A6A",
"t c #8C6B6A",
"y c #916465",
"u c #906A66",
"i c #916768",
"p c #926B6B",
"a c #986E6E",
"s c #887066",
"d c #87726B",
"f c #8B736C",
"g c #91726E",
"h c #8E6D72",
"j c #906F72",
"k c #986F71",
"l c #877671",
"z c #8D7471",
"x c #8D7973",
"c c #947372",
"v c #9B7675",
"b c #927A75",
"n c #967578",
"m c #957F79",
"M c #9D7B7A",
"N c #A27F7E",
"B c #9B817F",
"V c #A07F83",
"C c #A28483",
"Z c #A68888",
"A c #AD8D8D",
"S c #B59594",
"D c #B69997",
"F c #B29B98",
"G c #B9ABA7",
"H c #C0B1AC",
/* pixels */
"6e6666;#<*,888eie94c:00i9qyp84qww8609887-tw-e77eipe99e4e84q4Mq4l",
"676w68-#w o8869e85.+X:0yee998@2=:-680698@88:we667p968049984qg94l",
"67w7880&w*<:3e9e84#r#80ypp9984t:ww808398608<667iip99t08084t9p84x",
"666648846;r63ee9432p:9eepp9998t:<68897996w88877yyie6ZB485508884x",
"-773338&0o:43e55992y$e8eyp9q59q88988977920:>873y77e8pc804509958b",
"w63324248;02498893@e$e959q5yu5e0<788697968:8083y77q9e0484499883b",
"667332240=03397383$e=0985e28u9q8-6e99787$98:883y7797e8498395483d",
"67y3223$8=03858333$9-0957e43y4q::6e9y87768:>888977978e244384482z",
"73734228wo823793382q;8543y34e4e::886y89338:;884875389e@42242242z",
"77732228w;&23893774q%4223887948$>694e337268:8:483333882222344$2l",
"33y332e4w--33y53792q#848789y82e&:8q2e53784-;822y338e88$84443942d",
"237382ptw;03355578&8#t0p9y5yq3e-:495y987c8-;83373e7389$084q3q84l",
"2377386-0#84955538@9#w9q9y99y5e88676979888-,88393e98e8$83284444f",
"2277@D0$8#42359333$8=w89998788qq:687939y28-;83773335e8&88293222d",
"26772e6$:=8$359532O8=w845y77839t8668e38824;;&438336488#83693422f",
"237y22-:8-835595p8Oe;w858e7894e0:36pe787248:683938e338&8e884&22b",
"62594388--08099826Oe;w869e3483yt:7689383696,8633733328:8f972::8c",
"$295444&8=88e99623+0;0835933y4ew-8739583$68<873y3333$0$84838dt0B",
"w4854$&&8;048886$$+r,8888q37q49086859743298<823y743328&:8282bzqb",
"n4543&&%:=0:287926+t<0888e38q20r;684e73228:>863773328048&483bd4d",
"B4440r$&w;:8988e44%t>:688e45q4&-86:&08p2$80;:43y333388-:488$zs80",
"F8g40t$%:;>00y8eqq&q;088et85tf8:868r93e3$e8<8879399588$62892r:fd",
"Gfv448&%0=04qq8qcs%q<088kp58tger-68be28429-;833y779808&8$8e4f8cx",
"GBB8c0&%:%8&qq884q&trw288e8q0tqd:82Bu5g3$e-<833y7779qe48&384r80l",
"Bfu440&#:#0-te8605@p<0:888990tqt868tr2q2@q$,853y39389w$84488f8tx",
"tgq2444>>;88t95684$q<&898y839&t0$888e445&q$;895937959t$2&482q28l",
"eqq4440>;=:&098583@q<:48ey3794tw-80094444e;;:54337979w24$484828d",
"45u544:%,=:8498384$p<:899q98900w8e0:04452t:=84583393ew$24494888s",
"85q3484%<=8:095584$p<8884q838400-00>q88548:-8877377eet2324440&2d",
"838444&+,=8:e95349$p<028496782t0898:8444$80;68873779ew$6440404$f",
"4353434%#o683y5345&w;w8e45535890&08;e844$48:856933y9e0384498042d",
"5283734&:X86835555$e-w808q35539::083q384280:8877333370284&848&$z",
"3385838&ro843y5y38$e,w:t9776728w8w88q33320r>:83533778e28834484&d",
"2355988:ro83355335$t:t0t89776668:00483864r1>805338838e$8880884&d",
"2233334>1o855y5933$e,t8099688380::w8835330;:8t452e3338$8t884444z",
"2232338:<o433384252e;r00e7998240808e83338rw::8352e838w$8z4948$4f",
"2333323-t-83389348&q<h8w999w8288:<r893338r0:89392862602804980$2f",
"3333266;z-82593338$p<ewy9e9e4288www693336t8:88375q3229$808000&3f",
"2333228wj-83938338$e8e8ew90p83848w8883347t03997338323926e809he3s",
"23332288p:8$8593352ewe89998t338:::83y3789w888877387368660888t84f",
"2233222@e-838555684pwwe98ee882868:86799y30e6897737736828e8q5e48f",
"22323322w$87q83e798qwhtp9e537$9968w699973qe689773p838626tqqt83qf",
"@232222@8684553e993qwtrq9e8778882806999y3q8889377a939923zeeq545f",
"22332444V$84555u93$t<trtee93729826e899pp39q88e77yi398e28teqq824g",
"22532334n;94555a984p<rrtaee8449922yeyeuy39e98e3y3py78934tvgq822f",
"22532244p&88555gqe&q<trq0ee8788526yyy9pu49e45q3y3iyy8e28rpaf724s",
"@2524544c:4445yBq5&e:rrtjepye8e5$385y5qi4e8488373p9e80320pptq23d",
"22522444z:84qy5vq4$00teqp9qpp8u32385y38y498353335iqqe033qgt90$2f",
"2232224qf>48qp9py8$e8r8e988ip8q82353y99y4882773yyp5i89669pp0e22f",
"2222224qc$9eup5apq2q8tep9qqyp9eq2383y38y5e62733y5a5a0e220ty8865f",
"323234&0z:88yp8pp9$q808pyyq9u8q9228373774e82387y3auq9e269qqe954g",
"2353344sj-88qi9gp9$y0eeqevNyp9pe$88793772e02335y5aau89238ypMt89s",
"23y33345j;84eyqap92y898gagptqeq9268397874u92533y5pap9e2299ptt06r",
"23533344t&945epMk52e8e5tqaMZDcp7223297772083335y9aaq09256etpMACl",
"33533324t;845epca3$p884pqvACNtpe224893832e83593y9aape0236wtCCCtx",
"3353333yt:823yevp44p&95y9pyeqeqe$32393535p83337y9aye9q2538y7888s",
"7733338r<-837uppyq@p4q3q9y3754y9$83283338pe223397pueet393797889t",
"7753238ww;838pppu54p953e997782q9$22488333pe233397euy9q237372979f",
"5733222:<;089aptq54g883y993954e9&44893378p82252y39q9qq@78392829s",
"y73332201>869kycvu4p44399978qpye8:&483388q82232q2eapu025937353gs",
"5333322$<-829Ny7uuqp833q77799e98&&2:95386t8233393e9qqq3305998340",
"33773332w#038p99qy4u:3259y7799pe&>22853e0te233375pqpqu9454995544",
"33y72320r;838yyy983g87387y3qy8pq;>8884383t9222399aqyqq3544440440",
"23y72228w-033y9pe88p:833895598p0>>$2e43320e22238qpyu993845544444"
};
