/* XPM */
static char *result[] = {
/* columns rows colors chars-per-pixel */
"64 64 67 1 ",
"  c #30281F",
". c #2C2722",
"X c #2E2A25",
"o c #352D25",
"O c #352E2A",
"+ c #3C332C",
"@ c #3F382B",
"# c #3F3731",
"$ c #3E3831",
"% c #40362C",
"& c #40382F",
"* c #403731",
"= c #443B34",
"- c #483F36",
"; c #473E39",
": c #483F39",
"> c #494037",
", c #474039",
"< c #4C433C",
"1 c #4F493E",
"2 c #51473E",
"3 c #52483F",
"4 c #4F4640",
"5 c #4F4842",
"6 c #504741",
"7 c #544B43",
"8 c #584E45",
"9 c #564E48",
"0 c #584F49",
"q c #575046",
"w c #5A5047",
"e c #575049",
"r c #5D534B",
"t c #5E584D",
"y c #5E5651",
"u c #5F5850",
"i c #61564D",
"p c #62584F",
"a c #605750",
"s c #655B52",
"d c #685F55",
"f c #665F59",
"g c #695F58",
"h c #676056",
"j c #6A6057",
"k c #676158",
"l c #6C635A",
"z c #6E685C",
"x c #70665D",
"c c #72695E",
"v c #6D6761",
"b c #6F6862",
"n c #726760",
"m c #746B62",
"M c #796F66",
"N c #766F69",
"B c #777165",
"V c #7A7166",
"C c #777069",
"Z c #7D736A",
"A c #7D7670",
"S c #81776D",
"D c #837B75",
"F c #857E78",
"G c #887F79",
"H c #86817B",
"J c #89827B",
/* pixels */
"1>><2321-3621221>>8883888333876riappsdsddddpppiwip3w3wwwwwww23><",
"3331-===>w077arwiwwi838838ii8088iipspsppispiiipiipppdiiwiww333>>",
"3qwq2221>7eewr87888iw888wwww88080isiirprispipiii3wiippp3w3333333",
"&=13<>1<>277377733--2>--2-3wr8r00800re66idsipdpisishiiiiw8ww31>>",
"&>-@*->><>--*&&=%%-%%%%-%-60800i090ar0000i88iriidippiwi3pprrw3==",
"wjttee3876637wrr888i88iw8i0iipaptyasi0008ii08iiiddpiipddjdpppw1,",
"33333=17w32<1371-332283--88rappssa;0yr0yirii8iii3333>33ippsr6677",
"pq3wsw8riw788wrw88i88882ww8r0pspaayfayssiiiiaisdddsspppdjjsllzse",
"w33wwwwpi238wi333338383333338wwiiiitryygfddsdlsaplpiiiiijpsddsi8",
"iiwwpppi7=wjpssi38ipi888iiiwwippaiiaayyara808r8riiii88wpllcjjzdi",
"8338wwipp3882383328pi83iiiiiiiipppiaay0iiprpiddspid8388wiwpirp86",
"pipiwipppii3237333wpiiiiiw8iiiippshclrpaasiiiiisdi888388wpwippad",
"pipipddpdidi228wwwp8883338wii8wip8rppi888880ii8rw8w82828wiiirwip",
"piiidcdpp8wps3iiipii38iippiwwwwippipip8278888737822ww88ipwidiipd",
"iiiddddpi3>ipiiiwiiiiwwwiwwippii08880idripsp8878878882i8w8ww88ip",
"3wwiwwww88-2ipdpiiiw883wiw8idxjjlxxldsrspslsispsspiiipidi8333787",
"iddddddiwww333333332%-3w8338ipdpddldxlldsxdpa08888788828wiwiis8:",
"dxdScccjddpiww8322-%%-8ii888iiiwridllsrsssr888iri87882:28wiiwii8",
"dSdxcjdddpiwiwiw8w3338idpdppiw3888r0800r8::2:8irr88i82:---:2288i",
"iiiidi333w3wwiwwiiww838w38833idpssrriadr322280rriir888832-:88r87",
"iwww3-->>33>>>---23---------38iipi088ii08888rsspriwiw88r00r0:74:",
"3iw88iii3w3w3w38ww8wwwwi8i8iiiiippiprr0r0piiw8r8w88iii88a00srr6:",
"8w88ww8333w8333383-38--23->333wiipi808illppp8rsppiiiisiidssss0r0",
"iipiwwppiippppzjxdjjjddpdddddiiidsspipddnlnnsxmMSlsjddsslnlggasg",
"widpiwpwiddjcVVSSSSVVVcddddjdppddnlxxmxsdilxdxcmxdpsjhjhnMdsaaad",
"iiww3wwiippdjjjjdppiippddwiicjxxdldlxnxdjsisidxpppdsjcipdlxddddg",
"jzjjjppjdzcccczccjdxjcjjdjjcccjcnlsddlxsddssdjdddgzchspp0riisslx",
"8wiipjjppijzzjjjwwiwiiwiiiidccVVSMMmmmSclddljjdiddllxhhh8w8irwrr",
"8iww33ww>3pppppi8wdiiidww33wjcccxxldlmSclsiiww327ihhhhczzzhhsphh",
"djjzjjpiwpddppppjjjdddjdjpidiipddlxlxdxxdddlzljjxmcccBmzzBzBBmll",
"jczjdwwwijdjipiiiwpwwpcVcjjjdpdpjlxlxxSccMcclcppphsjzcBBBBmmzzzh",
"ddpppippipppwwpjjdjdpjjpjipcidjjllllllpljdjdpjljpjccVBBBmmmzjlls",
"jpddpiipjjdpjpipddldlcccxdlxglxxxSSxpiixxdapidsxxxxxzdlddlmcidda",
"pii8wwwsjldddjsplsslpdddgddlnlddldplsislmMMdxgdxxdcclcmmxxxdpsgd",
"pjpppiwidddjllddldpplidlddxxxdtsdldpppidlldsxlscncxdasdssdpassxg",
"piiiiiwiiipppdddxddddiddddddsslpijjxxlnScgssxxdmnxdsralllddllxgs",
"ppdpiiwwwiddpjldxsdddddllxxdlkhlijxjjjnnllngsgdmmdfytallddxdgxxg",
"pjjjdldiiidjccddpripsslldglxlkslijxnxxjitfgsdsancxsfssslasdgxlgs",
"w3ww3iiwiiicMSlpsddddlxxiisdzkfljxxnxxxjfssssa7agslklsslxxlxlglg",
"pwdpiiwwpdjcSSSVccSMMccc8issreyssrrijjireyusare48iyslsdsdisriasg",
"jzzzipiijpzlljjidjdlxxlseshsassaprsjsissfsyyahissddpiiisiissslid",
"dddpjjzcMclpwiriww88rtihnmnzhhhsdpllsszllllvblzlxlxmcxccxddsi800",
"wwipipjjcxhii333838iteihsnxhhsw6pdllarasafbbnnmxxllxcdxxdii87ii8",
"wipdppdpwr883wiiiiiiytsssrttppqqapi879aayslfdlzcxldllsppi0iirii8",
"dpip83ppw7770e8677wrrr0rsy9760y0ri0r0yaafflhzsjcldgcnxsppdssdssa",
"333iwwdw8w8etsasrrisas00y99e9000077799yygypihljcxlxsxljcnlsa8iss",
"wjpdzdjw671<698038rwtayfs59556900sgsasaasspipppjxxjidsppxddsraaa",
"3i323>>2-::670issspasa9<6<<7yyffnglssglsgnxlmcxdlclippplndsdi66s",
"w>@o3w31777rrtttrpislar757wavffsllsllmZZmdd8issxsjdpt07etepr8=36",
"jsi3riw7witw3@>777rweauateiaayfvnlgddsadpipadxjxjssslklsdsps8=7a",
"d3337ljptr71+ +<-:14wrssfylsaaayrasdglgsiipipisssa78u66778rs078g",
"33133qrpiairq1<17679weeasyyy99y0retsar0078wi8ispr887a96yrpp0rpad",
"hsi3i3r32<<><1>1779yyeerue0ryryassslsrrsrppaapdpi>669eyee797717e",
"3ip3333>---->1--<<,:;=-<64444<497tspr09yiipiiidrr616yyyasy9er09f",
"333333w3776777>=$$=#++;6649:=$990rpsarrspisissxxdpa0sgfsfuy59e09",
">>>&>%-&&&%++**<<;=;=###==;=+#;;:<1460908irr88ssspspyae0ye644544",
"7:=;<<<41<4<<4;$OXXO=;=;<,,4<,,167eyyssfsasatesirrr837336796<:5y",
":;;<445554:<;,;:OXO$,=$-441<5767970eee900raspsddsddirpa0;466<<99",
":::;;;;,,$=$;$$O.XXO$=<;,<;=4<<565e700990rapppiirrriiw06;;:4;;;4",
"*==<,<4449<,,4$:=$o#;4<<<:55<<6579yyye6ryr8risdsdpispi07:;:445;4",
"59964e5,5y54455,;$+#=-274,y94>55445777rrryptii0rwrrr887i760p0996",
"49669y9yyyyyre9e5:$$=-w79eyrurr75770rew770000iiipsppissprr070649",
"70645995999479<4:=+Oo+*2117755990yfytuslsar00riirw8888e78r064667",
"NCbnbvvvvbvfvbbbNblgzjflvNbNvNNAAADAFHJHGDGGGGJGGGGGJGDSZZNNnNbA"
};
